<?xml version="1.0" standalone="no"?>
<!DOCTYPE svg PUBLIC "-//W3C//DTD SVG 20010904//EN"
 "http://www.w3.org/TR/2001/REC-SVG-20010904/DTD/svg10.dtd">
<svg version="1.0" xmlns="http://www.w3.org/2000/svg"
 width="3264.000000pt" height="3264.000000pt" viewBox="0 0 3264.000000 3264.000000"
 preserveAspectRatio="xMidYMid meet">
<metadata>
Created by potrace 1.16, written by Peter Selinger 2001-2019
</metadata>
<g transform="translate(0.000000,3264.000000) scale(0.100000,-0.100000)"
fill="#ffffff" stroke="none">
<path d="M0 16320 l0 -16320 16320 0 16320 0 0 16320 0 16320 -16320 0 -16320
0 0 -16320z m18420 7706 c102 -9 212 -21 245 -26 33 -6 92 -15 130 -21 39 -5
90 -15 115 -20 25 -6 68 -15 95 -20 28 -6 68 -15 90 -20 22 -6 67 -17 100 -25
33 -8 74 -21 92 -29 17 -8 38 -15 47 -15 9 0 33 -7 54 -16 20 -9 57 -22 82
-29 69 -20 132 -44 162 -60 14 -8 33 -15 41 -15 13 0 90 -34 137 -60 8 -5 62
-33 120 -62 58 -28 111 -58 118 -64 6 -7 22 -16 34 -20 12 -3 43 -21 68 -38
25 -17 53 -35 62 -41 48 -30 134 -91 143 -100 9 -10 28 -24 83 -60 8 -5 23
-17 32 -25 10 -8 37 -31 61 -50 54 -43 263 -251 306 -305 18 -22 52 -67 77
-100 24 -33 52 -68 60 -77 9 -10 16 -22 16 -27 0 -5 10 -22 23 -38 23 -30 26
-33 84 -132 21 -35 48 -80 60 -100 27 -44 30 -49 43 -81 5 -14 14 -32 19 -40
19 -30 61 -129 61 -144 0 -8 4 -18 10 -21 5 -3 17 -30 26 -60 8 -30 19 -57 24
-60 4 -3 11 -24 15 -48 4 -23 13 -52 21 -64 7 -12 17 -41 20 -65 4 -24 12 -54
19 -68 7 -14 18 -54 24 -90 7 -36 16 -69 21 -75 4 -5 11 -39 15 -75 4 -35 14
-82 21 -103 7 -21 18 -85 24 -143 6 -57 15 -115 19 -127 5 -12 12 -72 15 -132
4 -61 14 -182 23 -270 12 -128 16 -306 17 -900 l1 -740 -1848 -5 -1849 -5 -19
-24 c-18 -22 -19 -45 -19 -456 0 -504 -9 -466 109 -490 41 -9 80 -20 86 -25 6
-5 31 -12 55 -16 25 -4 61 -15 80 -26 19 -10 45 -18 57 -18 13 0 40 -9 60 -20
21 -11 47 -20 58 -20 11 -1 38 -9 60 -20 22 -11 49 -19 60 -20 11 0 37 -9 58
-20 20 -11 48 -20 62 -20 14 0 43 -9 65 -20 22 -11 50 -20 62 -20 13 0 37 -9
53 -20 17 -11 39 -20 50 -20 11 0 38 -9 60 -20 22 -11 46 -19 53 -20 7 0 50
-18 94 -40 45 -22 89 -40 98 -40 8 0 32 -9 53 -20 20 -11 42 -20 48 -20 5 0
36 -12 67 -26 31 -14 77 -35 102 -46 25 -11 52 -24 60 -29 8 -5 26 -14 40 -19
35 -15 172 -80 190 -91 8 -5 34 -19 57 -30 23 -11 45 -24 48 -29 3 -4 19 -11
35 -15 17 -4 30 -10 30 -14 0 -4 28 -23 62 -41 35 -18 74 -41 87 -51 13 -11
28 -19 33 -19 5 0 14 -5 21 -10 7 -6 75 -52 152 -102 77 -51 142 -95 145 -98
3 -3 30 -24 60 -46 62 -47 103 -80 170 -141 26 -24 50 -43 53 -43 7 0 177
-170 177 -177 0 -3 20 -28 44 -56 44 -52 220 -310 243 -357 7 -14 17 -32 23
-40 5 -8 14 -26 20 -40 5 -14 14 -32 20 -40 5 -8 14 -26 20 -40 5 -14 14 -32
20 -40 5 -8 14 -26 20 -40 5 -14 14 -32 19 -40 17 -26 61 -128 61 -140 0 -7 6
-24 14 -38 16 -29 39 -97 62 -177 7 -27 18 -59 23 -70 10 -23 37 -126 52 -200
6 -27 17 -71 25 -97 8 -26 19 -84 25 -129 5 -45 14 -90 19 -99 5 -9 14 -70 19
-136 6 -65 15 -134 20 -152 36 -125 38 -2060 2 -2154 -5 -14 -15 -90 -21 -168
-6 -78 -15 -152 -20 -165 -5 -13 -14 -69 -20 -126 -6 -57 -15 -111 -20 -120
-5 -9 -14 -50 -20 -90 -6 -41 -17 -90 -24 -109 -8 -19 -17 -61 -20 -92 -4 -32
-11 -60 -16 -63 -5 -3 -14 -31 -20 -63 -7 -31 -16 -62 -20 -67 -5 -6 -14 -33
-21 -60 -7 -28 -18 -59 -26 -70 -7 -11 -13 -29 -13 -40 0 -11 -9 -37 -20 -58
-11 -20 -20 -42 -20 -49 0 -20 -154 -319 -205 -398 -31 -47 -55 -88 -77 -130
-7 -14 -18 -29 -23 -35 -6 -5 -24 -30 -40 -55 -114 -175 -372 -444 -565 -589
-141 -107 -277 -201 -289 -201 -5 0 -19 -8 -32 -19 -13 -10 -51 -33 -84 -51
-33 -17 -67 -36 -75 -41 -8 -5 -26 -13 -40 -19 -14 -5 -32 -14 -40 -19 -21
-14 -114 -54 -185 -81 -33 -12 -73 -28 -90 -36 -16 -7 -43 -16 -60 -20 -16 -4
-39 -12 -50 -17 -25 -14 -129 -43 -220 -62 -38 -8 -79 -19 -90 -25 -24 -12
-142 -36 -245 -51 -41 -5 -109 -16 -151 -25 -148 -28 -559 -34 -2649 -34
-2031 -1 -2602 6 -2745 31 -33 5 -109 16 -170 24 -136 17 -273 43 -296 56 -10
5 -42 14 -71 19 -51 9 -159 39 -223 61 -16 6 -50 17 -75 24 -79 24 -144 47
-175 60 -16 8 -50 23 -75 34 -25 11 -57 23 -73 27 -15 3 -29 10 -32 14 -3 4
-38 24 -77 44 -87 43 -170 89 -218 120 -19 13 -53 34 -75 47 -22 13 -49 31
-59 41 -11 10 -23 18 -27 18 -4 0 -14 6 -21 13 -7 7 -21 18 -30 23 -70 39
-367 323 -479 459 -63 76 -160 212 -194 273 -9 15 -24 41 -35 57 -11 17 -25
41 -32 55 -7 14 -22 39 -34 57 -28 42 -95 180 -159 328 -7 17 -22 51 -34 76
-12 25 -21 54 -21 63 0 9 -9 33 -20 53 -11 21 -20 46 -20 56 0 10 -7 34 -16
55 -9 20 -22 62 -29 92 -23 94 -36 143 -51 191 -8 26 -21 82 -29 125 -8 44
-19 102 -25 129 -26 133 -51 302 -60 410 -6 66 -15 154 -19 195 -5 41 -12 242
-15 445 -4 204 -11 449 -16 545 -5 96 -10 239 -10 318 0 140 0 142 23 143 12
1 841 1 1842 -1 1213 -1 1829 2 1846 8 15 6 30 19 35 29 5 10 10 257 12 548 2
415 -1 535 -11 555 -15 29 -96 76 -149 85 -21 4 -40 10 -43 15 -3 4 -29 14
-57 21 -29 6 -62 18 -73 25 -11 6 -39 15 -62 19 -24 4 -45 10 -48 15 -3 4 -29
14 -57 21 -29 6 -62 18 -73 25 -11 6 -36 15 -55 19 -19 4 -44 13 -55 19 -11 7
-38 16 -59 20 -22 4 -49 14 -60 22 -11 8 -29 14 -39 14 -10 0 -37 8 -60 19
-23 10 -58 22 -77 26 -19 4 -44 13 -55 20 -11 7 -36 16 -55 20 -19 4 -44 13
-55 20 -11 7 -36 16 -55 20 -19 4 -44 14 -55 21 -11 8 -26 14 -35 14 -8 0 -37
11 -65 25 -27 13 -57 25 -66 25 -9 0 -22 7 -29 15 -7 8 -20 15 -29 15 -9 0
-34 9 -55 19 -21 11 -51 23 -67 26 -16 4 -31 10 -34 15 -2 4 -31 20 -62 35
-138 66 -250 123 -283 143 -19 12 -53 32 -75 43 -22 12 -58 32 -80 45 -22 13
-53 31 -70 40 -16 9 -32 20 -35 24 -3 4 -18 15 -35 24 -32 18 -47 27 -141 91
-128 86 -289 220 -378 314 -28 29 -68 72 -89 94 -53 55 -174 203 -206 251 -51
77 -60 92 -101 161 -23 39 -50 84 -60 100 -37 58 -160 316 -160 334 0 6 -9 28
-20 48 -11 21 -20 44 -20 51 0 7 -9 30 -20 52 -11 22 -20 47 -20 57 0 10 -7
31 -16 48 -8 16 -20 52 -26 80 -6 27 -16 61 -23 75 -7 14 -15 45 -18 70 -3 25
-13 59 -21 75 -9 17 -16 41 -16 55 0 14 -8 63 -19 110 -35 153 -52 253 -62
365 -5 61 -14 135 -19 165 -31 165 -38 1587 -10 1890 5 58 17 192 25 299 9
106 18 198 21 203 3 4 14 59 24 121 10 61 24 139 29 172 17 91 51 234 72 293
11 30 19 62 19 73 0 10 9 36 20 56 11 21 20 46 20 56 0 10 9 35 20 57 11 22
20 45 20 52 0 7 9 30 20 51 11 20 20 43 20 51 0 7 9 25 20 39 11 14 20 32 20
40 0 8 9 25 19 39 11 13 23 37 26 51 4 15 11 27 15 27 5 0 12 10 16 23 6 19
27 58 77 142 16 27 100 158 110 170 19 25 64 86 82 111 67 92 348 372 458 456
12 10 48 38 79 63 31 25 62 45 68 45 6 0 13 7 16 15 4 8 12 15 19 15 8 0 26
10 42 23 15 13 35 27 43 31 8 4 33 18 55 31 22 13 57 32 78 41 20 9 37 20 37
25 0 5 6 9 13 9 7 0 48 18 92 40 44 22 94 45 112 51 18 6 33 14 33 19 0 5 15
12 33 16 17 3 48 15 67 25 19 11 40 19 47 19 7 0 30 9 50 20 21 11 47 20 58
20 11 0 34 9 50 20 17 11 40 20 52 20 12 0 45 9 73 20 28 11 61 20 73 20 12 0
35 7 51 15 15 8 56 19 91 25 34 5 79 17 98 25 20 8 54 15 76 15 22 0 60 7 85
15 40 14 225 37 431 55 44 3 1117 6 2385 5 2080 -2 2323 -3 2490 -19z"/>
<path d="M12963 21581 c-61 -3 -114 -9 -117 -12 -4 -3 -6 -496 -6 -1095 0
-909 2 -1091 14 -1102 11 -12 181 -15 992 -18 537 -3 982 -8 987 -11 6 -4 7
-62 3 -157 -4 -83 -9 -1400 -11 -2926 -2 -1526 -7 -3142 -10 -3590 l-7 -815
22 -27 21 -28 1123 0 1123 0 21 23 22 23 -1 3600 c0 1979 -4 3664 -8 3744 -5
99 -4 147 3 152 6 4 448 8 983 8 870 0 973 2 987 16 14 14 16 127 16 1095 0
1033 -1 1080 -18 1097 -17 17 -49 19 -427 25 -484 8 -5550 6 -5712 -2z"/>
</g>
</svg>
